<mxfile host="65bd71144e">
    <diagram id="GIWvC4idowcjom2pzTSJ" name="Page-1">
        <mxGraphModel dx="1216" dy="571" grid="1" gridSize="10" guides="1" tooltips="1" connect="1" arrows="1" fold="1" page="1" pageScale="1" pageWidth="827" pageHeight="1169" math="0" shadow="0">
            <root>
                <mxCell id="0"/>
                <mxCell id="1" parent="0"/>
                <mxCell id="11" value="" style="rounded=1;whiteSpace=wrap;html=1;" vertex="1" parent="1">
                    <mxGeometry x="80" y="140" width="410" height="190" as="geometry"/>
                </mxCell>
                <mxCell id="3" value="welcome" style="rounded=1;whiteSpace=wrap;html=1;" vertex="1" parent="1">
                    <mxGeometry x="110" y="180" width="70" height="20" as="geometry"/>
                </mxCell>
                <mxCell id="5" value="auth" style="rounded=1;whiteSpace=wrap;html=1;dashed=1;dashPattern=8 8;" vertex="1" parent="1">
                    <mxGeometry x="125" y="210" width="40" height="20" as="geometry"/>
                </mxCell>
                <mxCell id="6" value="/" style="rounded=1;whiteSpace=wrap;html=1;" vertex="1" parent="1">
                    <mxGeometry x="110" y="240" width="70" height="20" as="geometry"/>
                </mxCell>
                <mxCell id="7" value="Edit profile" style="rounded=1;whiteSpace=wrap;html=1;" vertex="1" parent="1">
                    <mxGeometry x="105" y="270" width="85" height="30" as="geometry"/>
                </mxCell>
                <mxCell id="8" value="Create List" style="rounded=1;whiteSpace=wrap;html=1;" vertex="1" parent="1">
                    <mxGeometry x="260" y="260" width="90" height="40" as="geometry"/>
                </mxCell>
                <mxCell id="9" value="Create points:&lt;br&gt;double click&lt;br&gt;cod mode" style="rounded=1;whiteSpace=wrap;html=1;" vertex="1" parent="1">
                    <mxGeometry x="350" y="180" width="120" height="60" as="geometry"/>
                </mxCell>
                <mxCell id="10" value="Edit points&lt;br&gt;edit marker" style="rounded=1;whiteSpace=wrap;html=1;" vertex="1" parent="1">
                    <mxGeometry x="370" y="260" width="80" height="40" as="geometry"/>
                </mxCell>
                <mxCell id="12" value="" style="rounded=1;whiteSpace=wrap;html=1;" vertex="1" parent="1">
                    <mxGeometry x="70" y="360" width="410" height="190" as="geometry"/>
                </mxCell>
                <mxCell id="17" value="sharing, search" style="rounded=1;whiteSpace=wrap;html=1;" vertex="1" parent="1">
                    <mxGeometry x="85" y="380" width="115" height="30" as="geometry"/>
                </mxCell>
                <mxCell id="18" value="Create points:&lt;br&gt;double click&lt;br&gt;cod mode" style="rounded=1;whiteSpace=wrap;html=1;" vertex="1" parent="1">
                    <mxGeometry x="340" y="400" width="120" height="60" as="geometry"/>
                </mxCell>
                <mxCell id="19" value="Edit points&lt;br&gt;edit marker" style="rounded=1;whiteSpace=wrap;html=1;" vertex="1" parent="1">
                    <mxGeometry x="350" y="470" width="80" height="40" as="geometry"/>
                </mxCell>
                <mxCell id="20" value="" style="rounded=1;whiteSpace=wrap;html=1;" vertex="1" parent="1">
                    <mxGeometry x="50" y="30" width="440" height="80" as="geometry"/>
                </mxCell>
                <mxCell id="21" value="Create a public list&lt;br&gt;Sausage spots" style="rounded=1;whiteSpace=wrap;html=1;" vertex="1" parent="1">
                    <mxGeometry x="60" y="40" width="120" height="60" as="geometry"/>
                </mxCell>
                <mxCell id="22" value="Create a private list/point&lt;br&gt;Secret coffee stash" style="rounded=1;whiteSpace=wrap;html=1;" vertex="1" parent="1">
                    <mxGeometry x="200" y="40" width="120" height="60" as="geometry"/>
                </mxCell>
                <mxCell id="23" value="search for&amp;nbsp;&lt;br&gt;4wheeler" style="rounded=1;whiteSpace=wrap;html=1;" vertex="1" parent="1">
                    <mxGeometry x="350" y="40" width="120" height="60" as="geometry"/>
                </mxCell>
                <mxCell id="24" value="/list/listid" style="rounded=1;whiteSpace=wrap;html=1;" vertex="1" parent="1">
                    <mxGeometry x="95" y="420" width="95" height="30" as="geometry"/>
                </mxCell>
            </root>
        </mxGraphModel>
    </diagram>
</mxfile>